<?xml version="1.0" encoding="UTF-8"?>
<svg width="302px" height="21px" viewBox="0 0 302 21" version="1.1" xmlns="http://www.w3.org/2000/svg" xmlns:xlink="http://www.w3.org/1999/xlink">
    <!-- Generator: sketchtool 45.2 (43514) - http://www.bohemiancoding.com/sketch -->
    <title>84D05C11-F8F8-4A99-A45F-9801AE57E879</title>
    <desc>Created with sketchtool.</desc>
    <defs></defs>
    <g id="Symbols" stroke="none" stroke-width="1" fill="none" fill-rule="evenodd">
        <g id="0-Atom/Illustration/Flower/Divider" fill="#000000">
            <path d="M99.3894484,10.5484739 C101.024291,10.5969488 102.683507,10.633832 104.343319,10.655435 C106.053067,10.6775649 107.764004,10.6343589 109.474941,10.6238208 C114.745673,10.5911529 120.017,10.5590119 125.288326,10.5300323 C129.747582,10.5057948 134.208027,10.429394 138.666094,10.4773421 C146.640559,10.5621733 154.614429,10.7097059 162.587704,10.8572385 C167.607563,10.9499732 172.626232,11.0985596 177.64609,11.2076283 C182.946547,11.3230199 188.247004,11.4399921 193.548649,11.5200813 C197.005004,11.5722446 200.463141,11.5822557 203.920685,11.5680293 C205.390259,11.5622334 206.861618,11.4737139 208.327626,11.3730756 C209.474393,11.2945672 209.741913,11.1333351 209.782338,10.1901805 C209.82633,9.16746356 210.363748,6.93129121 211.293527,5.69570588 C212.908752,3.54857999 216.347271,1.92203333 216.477464,1.93099067 C216.866854,1.95786267 216.985157,2.17916154 216.960189,2.70817121 C216.878149,4.40374203 216.366295,5.93808083 215.380633,7.26271261 C213.858149,9.30920021 212.078846,9.97889273 211.383295,10.8688303 C212.501527,10.4383513 214.827759,9.97309681 216.48757,9.97309681 C219.320901,9.97309681 222.157204,11.3135356 223.308133,11.8831168 C223.699901,11.9068274 223.77124,12.3878889 223.426437,12.5570245 C222.222004,13.1492624 219.905283,13.6614112 217.21463,13.4738341 C213.965752,13.2472662 212.356472,12.1581596 211.184141,11.7355842 C210.999256,11.6691945 210.924944,11.3630644 210.741842,11.0780104 C210.127141,11.7440146 209.410783,11.8736325 208.562448,11.8720518 C204.335637,11.8636214 200.108232,11.9526678 195.881421,11.9273765 C191.616563,11.9020852 187.351704,11.7988124 183.088035,11.7013356 C178.301216,11.5922668 173.516181,11.4294541 168.729362,11.3319772 C164.998354,11.2555764 161.264968,11.2566302 157.532771,11.1976172 C155.462169,11.1649493 153.392756,11.0548267 151.321559,11.0226857 C148.053063,10.9715762 144.783378,10.9441773 141.513693,10.929424 C137.95687,10.9130901 134.399452,10.9057135 130.842035,10.9267895 C127.092598,10.9489194 123.343756,11.0179436 119.594319,11.0490308 C117.125409,11.0690531 114.6565,11.0463963 112.188185,11.0616765 C107.967319,11.0874947 103.745858,11.096452 99.5255862,11.1602071 C98.7925823,11.1712721 98.3056965,10.5163328 99.3894484,10.5484739 Z M97.5548579,13.1935222 C98.5452752,13.2167059 99.5273697,13.264654 100.508275,13.259385 C105.298661,13.2325129 110.089047,13.1908877 114.878838,13.1555852 C115.449547,13.15137 116.019661,13.1550583 116.59037,13.15137 C122.480559,13.1134331 128.370748,13.0665388 134.260937,13.0396668 C136.064614,13.0312364 137.870074,13.1255518 139.671968,13.0844535 C143.893429,12.9880304 148.113106,12.8347019 152.333378,12.7119337 C152.997421,12.6929652 153.663248,12.7240525 154.327885,12.7092992 C157.550011,12.6376405 160.772137,12.5538631 163.994263,12.4858927 C164.609559,12.4727202 165.189185,12.4374177 165.929917,12.527518 C167.146834,12.6761044 167.624208,13.8911405 166.595149,14.087675 C165.565496,14.2842095 163.71307,14.1588068 162.260141,14.1572261 C158.368027,14.1530108 154.475319,14.1840981 150.58261,14.1814636 C148.6422,14.1804098 146.701791,14.1071704 144.761976,14.1171815 C141.057126,14.13615 137.35287,14.1751407 133.648614,14.2362614 C129.280909,14.3079201 115.676641,13.8479346 114.408004,13.9116897 C109.232389,14.1725062 104.059748,14.1472149 98.8853224,13.9296044 C98.5577594,13.9159049 98.2278185,13.9401424 97.752228,13.9501536 C98.6136413,15.6994684 97.877665,17.267002 97.2379957,18.1616817 C96.7148461,18.8940756 94.9825075,20.1855125 94.4599524,20.0390338 C93.9373972,19.892555 93.3048618,16.6505266 94.9825075,14.8948889 C93.8000705,15.3828003 92.1973303,15.6125296 90.7741256,15.4802771 C89.3747004,15.3501323 86.5110508,14.5782208 86.5110508,14.1883133 C86.5110508,13.8468807 89.0275193,12.9010916 90.224224,12.7498707 C91.7645429,12.5549169 93.4035469,12.6655663 94.8933343,13.0106872 C94.8933343,13.0106872 93.0736059,12.1028349 92.3269287,10.7060176 C91.7687043,9.434076 91.5499327,6.98503522 91.8662004,6.89915019 C92.5986098,6.70156192 95.4640429,8.24907327 96.8688185,10.2312788 C97.5863657,11.2429308 97.4829248,12.4563862 97.5548579,13.1935222 Z M89.4727909,11.1965634 C83.8739012,11.3757101 78.2666886,11.3404077 72.6630429,11.4236582 C67.5843303,11.4990052 28.3956689,11.6533875 23.3163618,11.7124005 C19.3743106,11.758241 15.430476,11.7124005 11.4878303,11.7023894 C11.2048539,11.7018625 10.9135547,11.6960665 10.6400902,11.6386342 C10.1169406,11.5285117 9.62410984,11.3741294 9.68415315,10.7460621 C9.74835787,10.0658316 10.2839917,10.1037685 10.8243815,10.1248446 C12.8658539,10.2059875 14.9067319,10.3097872 16.9493933,10.3577353 C19.2256886,10.4109524 21.5037673,10.4193828 23.7806571,10.4341361 C26.4350469,10.450997 63.2005744,10.4805035 65.8543697,10.456266 C69.3172634,10.4246519 72.7795626,10.3450897 76.2424563,10.2876573 C79.9936768,10.2260098 83.7448972,10.165943 87.4967122,10.1074568 C87.6863539,10.1042954 88.7802122,10.1880728 88.9645035,10.1627815 C89.8633697,10.1074568 90.654039,11.225543 89.4727909,11.1965634 Z M206.563957,6.89551456 C206.829099,7.16212701 206.521749,7.53622747 205.996221,7.51620519 C203.767485,7.43348157 201.536965,7.34443512 199.30704,7.32862806 C197.127646,7.3133479 194.948253,7.39343701 192.768265,7.41451309 C189.159721,7.44928863 185.550583,7.45139624 181.942635,7.50197884 C178.335875,7.55256143 174.730304,7.66479157 171.123544,7.71326656 C168.656418,7.74646139 166.188103,7.70747064 163.720383,7.71906248 C159.119639,7.74066547 154.5183,7.77912932 149.916961,7.80283991 C148.348702,7.81074344 146.779847,7.77754861 145.212182,7.79546328 C141.658331,7.83498094 132.268985,7.86448745 131.131729,7.90400511 C127.629005,8.02519258 124.128064,8.19222053 120.625934,8.32868817 C118.832957,8.39823924 117.038792,8.46779031 115.244627,8.47990906 C114.687591,8.48359737 114.111532,8.34502213 113.574115,8.19011293 C112.238894,7.80547442 111.354296,6.23161797 112.438048,5.87332457 C113.5218,5.51503117 120.25854,6.15732478 124.169083,6.27798535 C126.868654,6.36070897 129.561091,6.59149208 132.261257,6.59465349 C135.679564,6.59886871 139.097871,6.5198334 142.516178,6.50824155 C148.309465,6.48927308 154.103347,6.48295025 159.896635,6.49348829 C164.642434,6.50297253 169.388233,6.53827497 174.133438,6.57410431 C179.734706,6.61625647 185.334784,6.67843092 190.936052,6.71952928 C195.492804,6.75325101 200.049556,6.77327329 204.606308,6.78697274 C205.392221,6.78960725 206.298816,6.62890212 206.563957,6.89551456 Z M210.308936,12.1445129 C211.518719,12.3800381 213.245707,13.2246621 214.173704,14.1709782 C215.718778,15.7458885 215.987487,18.7998128 215.69381,18.944184 C215.399538,19.0885551 213.018613,18.1970368 211.940211,17.3429286 C210.862404,16.4882935 209.801837,15.1873723 209.786381,13.5829555 C209.782219,13.1545841 209.933814,12.725159 210.044389,12.2546354 C210.056278,12.2056335 210.229274,12.1292327 210.308936,12.1445129 Z M296.473816,0.55003306 C296.67297,0.707576776 296.693777,3.62608728 295.287218,5.02711986 C293.418741,6.88813794 291.099048,7.24063541 290.924269,7.19901015 C290.663883,7.13630881 290.260226,5.33535757 291.857021,3.33154903 C293.453222,1.3282674 296.235426,0.361402123 296.473816,0.55003306 Z M296.137633,13.9841914 C295.927779,14.1506925 293.473731,13.297638 292.065389,11.5309354 C290.657641,9.76370593 291.013145,8.17509622 291.243212,8.1202984 C291.397184,8.08341526 293.442818,8.39428747 295.090739,10.0355874 C296.332031,11.2711727 296.313007,13.8450893 296.137633,13.9841914 Z M297.057128,9.18601051 C295.324789,9.18601051 293.15253,8.20491887 293.146585,7.87297058 C293.141234,7.5974008 295.183301,6.07886906 297.160569,6.07886906 C300.094963,6.07886906 301.630526,7.55050652 301.547297,7.7770744 C301.406404,8.161186 299.608671,9.18601051 297.057128,9.18601051 Z M218.574819,6.66404649 C218.664586,6.54127831 219.54859,6.52810576 220.022992,6.57025792 C225.878106,7.09347167 278.687681,7.1772491 284.565385,7.08029912 C285.985618,7.05711543 287.407633,7.14194666 288.829055,7.13878525 C289.367661,7.13773144 290.03646,7.00337142 290.293874,7.26629554 C290.550693,7.52974657 289.976417,7.7657987 289.459212,7.75684136 C288.226838,7.73576528 286.995059,7.688871 285.76209,7.67991366 C282.634488,7.65672997 232.564909,7.69150551 229.438496,7.62300824 C226.268685,7.55345717 223.100657,7.39222514 219.93263,7.25891892 C219.486763,7.24047734 218.80548,7.24416566 218.636645,7.17514149 C218.468405,7.10611732 218.485051,6.78681467 218.574819,6.66404649 Z M105.494485,5.90730975 C105.949863,5.78875679 106.477769,6.17708361 106.396324,6.7645794 C106.367194,6.97481332 106.185281,7.3009657 105.8488,7.30781543 C105.512915,7.31519206 105.15206,6.97797474 105.102123,6.74561093 C105.033163,6.42420067 105.039107,6.02586272 105.494485,5.90730975 Z M109.162656,5.97333058 C109.419475,6.14351995 109.600199,6.57399893 109.386778,6.91174315 C109.172762,7.24948737 108.671609,7.45287156 108.220987,7.26371372 C107.643144,7.02081187 107.814357,6.541331 107.948117,6.17776858 C108.18175,5.5444323 108.905837,5.80314121 109.162656,5.97333058 Z M3.83403268,10.1591986 C4.28941063,10.0406456 4.81731614,10.4289725 4.73587126,11.0164683 C4.70674134,11.2267022 4.52482795,11.5528546 4.18834764,11.5597043 C3.85246181,11.5670809 3.49160748,11.2298636 3.44167047,10.9974998 C3.37270984,10.6760895 3.37865472,10.2777516 3.83403268,10.1591986 Z M7.50220315,10.2251668 C7.75902205,10.3953561 7.93974646,10.8258351 7.7263252,11.1635793 C7.51230945,11.5013235 7.01115591,11.7047077 6.56053386,11.5155499 C5.98269134,11.272648 6.15390394,10.7931672 6.28766378,10.4296047 C6.52129764,9.79626847 7.24538425,10.0549774 7.50220315,10.2251668 Z M1.34639685,10.2251668 C1.60321575,10.3953561 1.78394016,10.8258351 1.5705189,11.1635793 C1.35650315,11.5013235 0.855349606,11.7047077 0.404727559,11.5155499 C-0.173114961,11.272648 -0.00190236221,10.7931672 0.13185748,10.4296047 C0.365491339,9.79626847 1.08957795,10.0549774 1.34639685,10.2251668 Z M173.011401,14.114547 C172.556023,14.2331 172.028117,13.8447731 172.109562,13.2572773 C172.138692,13.0470434 172.320606,12.720891 172.657086,12.7140413 C172.992972,12.7066647 173.353826,13.043882 173.403763,13.2762458 C173.472724,13.5976561 173.466779,13.995994 173.011401,14.114547 Z M169.119108,13.1101663 C169.333124,12.7724221 169.834278,12.5690379 170.2849,12.7581957 C170.862742,13.0010976 170.69153,13.4805784 170.55777,13.8441409 C170.324136,14.4774771 169.600049,14.2187682 169.34323,14.0485789 C169.086411,13.8783895 168.905687,13.4479105 169.119108,13.1101663 Z"></path>
        </g>
    </g>
</svg>