<?xml version="1.0" encoding="UTF-8"?>
<svg width="300px" height="30px" viewBox="0 0 300 30" version="1.1" xmlns="http://www.w3.org/2000/svg" xmlns:xlink="http://www.w3.org/1999/xlink">
    <!-- Generator: Sketch 46.2 (44496) - http://www.bohemiancoding.com/sketch -->
    <title>Combined Shape</title>
    <desc>Created with Sketch.</desc>
    <defs></defs>
    <g id="Wisdom" stroke="none" stroke-width="1" fill="none" fill-rule="evenodd">
        <g id="2.6.1:-Wisdom-/-Wisdom-Poem-Desktop" transform="translate(-500.000000, -964.000000)" fill="#c98c31" fill-opacity="1">
            <g id="Poem" transform="translate(0.000000, 160.000000)">
                <g id="Poem-Content" transform="translate(226.000000, 50.000000)">
                    <g id="Text">
                        <g id="Poem" transform="translate(58.000000, 83.000000)">
                            <g id="0-Atom/Illustration/flower-divider-horizontal" transform="translate(366.000000, 686.000000) scale(-1, 1) translate(-366.000000, -686.000000) translate(216.000000, 671.000000)">
                                <path d="M244.114264,19.61825 C244.228833,19.7353739 244.336931,19.8541116 244.437474,19.9739737 C246.355335,22.2593795 246.688876,26.6910328 246.324342,26.9005347 C245.95907,27.1100366 243.003691,25.8163242 241.6651,24.5768987 C240.327247,23.3367086 239.010793,21.4488976 238.991607,19.1206739 C238.988336,18.7270893 239.062571,18.3328917 239.152315,17.9233314 C238.568598,18.2150544 237.926428,18.288581 237.215904,18.28712 C231.490961,18.274519 225.765212,18.4076169 220.040268,18.3706015 C214.263792,18.3327985 208.487315,18.1776489 202.71245,18.0319499 C196.229011,17.8689246 189.747988,17.625568 183.26455,17.479869 C178.21114,17.3656726 173.154509,17.3672477 168.100294,17.2790408 C165.294991,17.2302119 162.492103,17.0656115 159.687605,17.0175702 C155.259833,16.9411767 150.831254,16.9002235 146.403482,16.8781718 C141.585189,16.8537573 136.766896,16.8427315 131.949408,16.8742339 C126.871037,16.9073115 121.792665,17.0112697 116.714294,17.0569483 C113.37112,17.0868757 110.027141,17.0530105 106.683162,17.0758498 C100.96627,17.1144403 95.2493784,17.1286164 89.5332919,17.2231239 C88.53968,17.2396627 87.8802245,16.2607232 89.3480968,16.3087645 C91.5623859,16.3812202 93.8096879,16.4363495 96.0577952,16.4686396 C98.373539,16.5017172 100.691698,16.4371371 103.008247,16.4213859 C110.14792,16.3733446 117.286788,16.3245158 124.426461,16.2811999 C130.466237,16.244972 136.507622,16.1307755 142.546593,16.2024437 C153.346687,16.3292411 164.146781,16.5497585 174.94607,16.7702758 C181.745145,16.9088867 188.54261,17.1309791 195.341685,17.2940044 C202.520813,17.4664805 209.699941,17.6413192 216.880679,17.7610286 C221.562894,17.8397848 226.245914,17.8539609 230.928934,17.8326968 C232.919378,17.8240336 234.912238,17.6917232 236.897852,17.5412989 C238.451075,17.4239521 238.813413,17.1829582 238.868972,15.7732224 C238.928556,14.2445648 239.656453,10.9021522 240.914975,9.05531963 C243.102692,5.84600498 247.759946,3.41480146 247.936284,3.42819002 C248.464493,3.46835567 248.624727,3.79913166 248.590103,4.58984379 C248.479791,7.12421791 247.785712,9.41759809 246.450697,11.3975287 C244.38859,14.456419 241.979444,15.4574101 241.037365,16.7876021 C242.551133,16.1441641 245.701865,15.448747 247.949972,15.448747 C251.787537,15.448747 255.629127,17.4530919 257.187986,18.3036588 C257.71861,18.339099 257.815234,19.058143 257.349026,19.3109504 C255.717698,20.1961699 252.579044,20.9616801 248.934727,20.6813081 C246.911237,20.5255531 245.357163,20.0970817 244.114264,19.61825 Z M240.223212,17.1990887 C240.205769,17.1660791 240.187596,17.1330782 240.168558,17.1002642 C240.150588,17.1217291 240.132555,17.1428213 240.114458,17.1635468 C240.150478,17.1749942 240.186736,17.1868442 240.223212,17.1990887 Z M75.7836079,15.8781854 C77.0156826,15.7939818 78.099452,17.4956962 76.4803168,17.4507876 C68.8059258,17.7242487 61.1201268,17.6697169 53.4392169,17.7972252 C46.4778321,17.9119024 39.518077,18.1468705 32.5558773,18.2366877 C27.1525128,18.3064564 21.7467038,18.2358857 16.3425244,18.2214508 C15.9546491,18.2206489 15.5553656,18.2118276 15.181343,18.1244162 C14.4634476,17.9560091 13.7879252,17.7218429 13.8702265,16.7659318 C13.9590467,15.7306287 14.6924245,15.7875663 15.433136,15.8204458 C18.2313797,15.9431425 21.0288084,16.1019264 23.8286818,16.1749028 C26.9487968,16.2558986 30.0713564,16.2679277 33.1922862,16.290382 C36.8306549,16.316846 40.4690235,16.3609526 44.1065773,16.3248654 C48.8531612,16.2767491 53.5989302,16.1548543 58.3455142,16.0682449 C63.4873072,15.9744181 68.6291003,15.8829971 73.7717082,15.7939818 C74.0316499,15.7891702 75.531,15.9166785 75.7836079,15.8781854 Z M179.207392,18.0340329 C180.862464,18.2547719 181.511719,20.0670317 180.112143,20.3600412 C178.712568,20.6530507 176.192363,20.4660902 174.216301,20.462948 C168.922818,20.4566636 163.628527,20.5037965 158.335044,20.4998688 C155.695984,20.4982977 153.056115,20.3891065 150.417863,20.4040319 C145.379069,20.4323116 140.341083,20.4904422 135.303097,20.5807803 C129.362786,20.6876148 110.861064,20.0018312 109.13484,20.0976681 C102.095729,20.4857289 95.0606602,20.4488082 88.0231658,20.1243767 C87.5776627,20.1039525 87.1297339,20.1400877 86.4829054,20.1550131 C87.6536651,22.7630333 86.6526979,25.1000393 85.7835221,26.4339002 C85.0720107,27.5258122 82.7159378,29.4504054 82.0052349,29.2328086 C81.2937235,29.0144261 80.4334416,24.1801623 82.7159378,21.5635011 C81.1069518,22.2901332 78.9271397,22.6334178 76.9923138,22.4362452 C75.0890209,22.2422148 71.1934961,21.0913866 71.1934961,20.5092954 C71.1934961,20.0010457 74.6160275,18.5909866 76.2436098,18.3647487 C78.3385257,18.0740958 80.5676585,18.2398465 82.5946574,18.7543806 C82.5946574,18.7543806 80.1189212,17.4000954 79.1034004,15.3176071 C78.344994,13.4220792 78.0466443,9.7700654 78.4767853,9.64280658 C79.4729012,9.34744044 83.3700431,11.6545956 85.2814214,14.6106136 C86.2565154,16.1188663 86.1158302,17.9279839 86.2144716,19.0261803 C87.561492,19.06153 88.8963844,19.1330149 90.2312767,19.1251594 C96.7456486,19.0850964 103.260829,19.0230381 109.776009,18.9704064 C110.551395,18.964122 111.327589,18.9696208 112.102975,18.964122 C120.113946,18.906777 128.124918,18.8376487 136.135889,18.7968002 C138.588986,18.785017 141.044509,18.9256301 143.495989,18.8643574 C149.236592,18.7198165 154.975578,18.4920075 160.715373,18.3089747 C161.618507,18.2799095 162.524067,18.3270424 163.42801,18.305047 C167.810273,18.1982124 172.192537,18.0733103 176.5748,17.971189 C177.412443,17.9523358 178.199957,17.8997041 179.207392,18.0340329 Z M109.342239,10.4519848 C107.536098,9.92615824 106.339509,7.77459138 107.805491,7.28478038 C109.271473,6.79496938 118.383401,7.67302763 123.673964,7.83725838 C127.324847,7.95106741 130.967688,8.26584301 134.620179,8.27088518 C139.244094,8.27592735 143.868009,8.16788081 148.491924,8.15275429 C156.328455,8.12610281 164.164987,8.11745909 172.001518,8.1325856 C178.42112,8.14483088 184.840723,8.19309167 191.260326,8.24207277 C198.836309,8.3004179 206.412293,8.38541452 213.988276,8.44159872 C220.15296,8.48697827 226.31684,8.51435006 232.480721,8.53379844 C233.543819,8.53667968 234.770162,8.31698504 235.128817,8.68218236 C235.487472,9.04665937 235.071721,9.55735937 234.360845,9.53070789 C231.346052,9.41689886 228.328847,9.29588673 225.312446,9.27427742 C222.364398,9.25338842 219.416351,9.36287559 216.467499,9.39096769 C211.586253,9.43850817 206.704202,9.44210972 201.82376,9.51125951 C196.944927,9.5804093 192.067701,9.73311508 187.188868,9.80010394 C183.851607,9.84548349 180.512738,9.79218053 177.174674,9.80802735 C170.950482,9.83683976 164.727094,9.88942242 158.502902,9.92183638 C156.38153,9.93336134 154.259354,9.8879818 152.137982,9.91175204 C147.330718,9.96649562 134.630633,10.006833 133.092276,10.0608563 C128.35417,10.2265276 123.618477,10.4541457 118.881175,10.6407061 C116.455831,10.7365073 114.028879,10.8315883 111.601927,10.8474351 C110.848429,10.8531976 110.069199,10.663756 109.342239,10.4519848 Z M284.701773,10.9478824 C284.305194,10.8505141 283.690405,8.02930668 286.122398,4.89206466 C288.554392,1.75482264 292.790914,0.240661904 293.153992,0.536067649 C293.457312,0.782789207 293.489908,5.35250154 291.346748,7.54659058 C288.500971,10.4610406 284.967971,11.0130697 284.701773,10.9478824 Z M293.440571,9.61099188 C297.78354,9.61099188 300.056208,11.3673971 299.933028,11.6379037 C299.724503,12.0971357 297.063818,13.320706 293.287476,13.320706 C290.723575,13.320706 287.508581,12.1493498 287.499783,11.7530262 C287.491864,11.4240148 290.51417,9.61099188 293.440571,9.61099188 Z M283.683035,11.0797798 C284.029286,11.6178265 283.255031,12.1019606 282.558521,12.0836304 C280.896195,12.0394221 279.235473,11.9445361 277.573949,11.9262059 C273.356419,11.8787629 269.138088,11.9499274 264.922963,11.8097549 C260.648526,11.6674259 256.378096,11.3374815 252.106866,11.0646843 C251.505735,11.0269456 250.587208,11.0344933 250.35958,10.8932426 C250.131952,10.7519919 250.154395,10.0985726 250.275422,9.84734037 C250.397251,9.59610818 251.589092,9.56915194 252.228695,9.65541192 C260.121936,10.7261139 268.035214,10.8975556 275.959714,10.6991577 C277.874514,10.6517147 279.791719,10.8253129 281.708122,10.8188434 C282.434287,10.8166869 283.336784,10.540655 283.683035,11.0797798 Z M98.6496308,12.083956 C98.0236018,12.0958695 97.3510361,11.5093589 97.2579628,11.1052164 C97.1294329,10.5461985 97.1405131,9.8533828 97.9892533,9.64810409 C98.8368855,9.44190895 99.8219117,10.1163962 99.6701135,11.1382076 C99.6147127,11.5047767 99.2756598,12.0720425 98.6496308,12.083956 Z M101.534214,9.49623847 C100.670782,9.11170678 100.926614,8.35348703 101.126483,7.77794069 C101.475586,6.77448814 102.557541,7.18404359 102.941288,7.45346601 C103.325036,7.72372255 103.59508,8.40520279 103.276179,8.93904288 C102.957278,9.47371709 102.207549,9.7956894 101.534214,9.49623847 Z M4.7041246,15.8309238 C5.55285972,15.6247279 6.53677198,16.3001341 6.38497471,17.3219494 C6.33068225,17.6876035 5.9916314,18.2548713 5.36449814,18.2667849 C4.73847288,18.2796149 4.06591124,17.6921856 3.97283846,17.288958 C3.84430938,16.729938 3.85538947,16.0371197 4.7041246,15.8309238 Z M9.65616439,16.1095659 C10.0399119,16.3789758 10.3099564,17.0604244 9.99105513,17.5950737 C9.67126556,18.1297231 8.92242499,18.4516805 8.24909028,18.1522435 C7.38565844,17.7677296 7.6414901,17.008711 7.84135858,16.4331914 C8.19046219,15.4306196 9.27241691,15.840156 9.65616439,16.1095659 Z M2.19335447,16.1095659 C2.57710196,16.3789758 2.84714648,17.0604244 2.52824522,17.5950737 C2.20845565,18.1297231 1.45961507,18.4516805 0.786280363,18.1522435 C-0.0771514756,17.7677296 0.17868018,17.008711 0.378548662,16.4331914 C0.727652276,15.4306196 1.80960699,15.840156 2.19335447,16.1095659 Z M189.031201,19.5037416 C189.657455,19.4918281 190.330262,20.0783387 190.423369,20.4824811 C190.551945,21.0414991 190.54086,21.7343147 189.691816,21.9395934 C188.843879,22.1457886 187.8585,21.4713014 188.011461,20.4494899 C188.065773,20.0829208 188.404948,19.5156551 189.031201,19.5037416 Z M184.903337,19.6183163 C185.766769,20.002848 185.510937,20.7610677 185.311069,21.3366141 C184.961965,22.3400666 183.88001,21.9305112 183.496263,21.6610888 C183.112515,21.3908322 182.842471,20.709352 183.161372,20.1755119 C183.480273,19.6408377 184.230002,19.3188654 184.903337,19.6183163 Z M284.417595,12.0870686 C285.919318,12.4287979 288.063276,13.6548978 289.214452,15.0271969 C291.131637,17.313465 291.465737,21.7451838 291.101342,21.9541679 C290.736082,22.1640489 287.780242,20.8706795 286.442973,19.6302288 C285.104839,18.390675 283.788343,16.5026426 283.768436,14.1751158 C283.764108,13.5526481 283.951932,12.9292835 284.089553,12.2467216 C284.103402,12.1758644 284.318923,12.0646454 284.417595,12.0870686 Z" id="Combined-Shape" transform="translate(150.059685, 14.874798) rotate(-180.000000) translate(-150.059685, -14.874798) "></path>
                            </g>
                        </g>
                    </g>
                </g>
            </g>
        </g>
    </g>
</svg>