<?xml version="1.0" standalone="no"?>
<!DOCTYPE svg PUBLIC "-//W3C//DTD SVG 20010904//EN"
 "http://www.w3.org/TR/2001/REC-SVG-20010904/DTD/svg10.dtd">
<svg version="1.0" xmlns="http://www.w3.org/2000/svg"
 width="260.000000pt" height="260.000000pt" viewBox="0 0 260.000000 260.000000"
 preserveAspectRatio="xMidYMid meet">
<metadata>
Created by potrace 1.11, written by Peter Selinger 2001-2013
</metadata>
<g transform="translate(0.000000,260.000000) scale(0.100000,-0.100000)"
fill="#000000" stroke="none">
<path d="M1215 2465 c4 -80 3 -125 -3 -125 -5 0 -14 30 -18 67 -7 54 -13 69
-27 71 -17 3 -18 -1 -12 -53 4 -31 8 -62 9 -68 0 -7 -3 -14 -8 -17 -6 -3 -16
25 -24 63 -15 68 -18 73 -39 59 -10 -6 -9 -20 2 -62 17 -64 18 -80 6 -80 -5 0
-19 29 -31 65 -12 36 -26 65 -31 65 -19 0 -19 -27 0 -83 26 -75 8 -85 -24 -13
-14 31 -36 81 -49 111 -15 33 -31 55 -40 55 -22 0 -21 -3 29 -118 25 -56 45
-107 45 -112 0 -24 -19 -6 -40 40 -28 60 -47 79 -56 57 -3 -8 6 -38 21 -67 37
-74 25 -85 -20 -17 -21 31 -41 57 -46 57 -23 0 -17 -27 15 -75 46 -69 30 -81
-21 -16 -21 28 -43 50 -50 51 -26 1 -21 -20 18 -69 69 -87 33 -74 -58 20 -69
71 -89 87 -100 78 -11 -10 2 -28 72 -99 47 -48 85 -90 85 -94 0 -16 -24 -3
-66 36 -35 33 -47 39 -57 29 -9 -10 -1 -23 41 -61 65 -61 53 -73 -18 -20 -59
44 -65 46 -73 26 -3 -8 15 -28 49 -52 81 -59 71 -76 -14 -24 -54 33 -72 37
-72 16 0 -7 25 -29 55 -47 52 -31 68 -49 45 -49 -6 0 -55 23 -110 50 -108 54
-120 58 -120 35 0 -9 41 -35 103 -66 114 -57 113 -57 104 -65 -4 -4 -30 3 -58
15 -60 25 -79 26 -79 7 0 -8 26 -24 60 -38 84 -32 79 -52 -6 -26 -36 11 -68
17 -71 14 -15 -15 12 -35 67 -50 73 -21 72 -43 -1 -27 -62 15 -89 13 -89 -3 0
-13 74 -36 115 -36 8 0 15 -7 15 -16 0 -12 -7 -14 -27 -10 -16 2 -55 7 -88 11
-33 3 -77 8 -97 11 -33 5 -38 3 -38 -14 0 -17 12 -20 125 -32 69 -7 125 -17
125 -21 0 -5 -32 -9 -71 -9 -62 0 -70 -2 -67 -17 3 -15 16 -19 71 -21 70 -3
95 -22 28 -22 -60 0 -101 -11 -101 -27 0 -12 14 -14 70 -11 92 4 94 -16 2 -28
-49 -7 -67 -13 -67 -24 0 -17 23 -18 99 -6 38 6 47 5 44 -6 -3 -7 -40 -21 -84
-31 -133 -30 -154 -37 -154 -52 0 -20 19 -19 130 10 104 27 120 29 120 17 0
-5 -27 -17 -60 -27 -67 -20 -73 -25 -61 -44 8 -13 41 -6 130 27 8 3 12 0 10
-7 -3 -7 -29 -23 -59 -36 -30 -13 -56 -30 -58 -39 -5 -22 13 -20 78 9 30 13
57 22 59 20 8 -9 -14 -27 -60 -50 -27 -14 -49 -32 -49 -40 0 -22 17 -19 77 15
60 34 63 35 63 18 0 -7 -45 -41 -100 -76 -55 -35 -100 -67 -100 -72 0 -27 32
-15 122 45 128 85 150 78 35 -12 -21 -16 -26 -26 -20 -37 7 -13 18 -8 65 29
32 25 59 41 62 36 3 -4 -17 -29 -44 -56 -39 -38 -47 -52 -38 -62 9 -11 21 -4
63 37 66 65 81 50 19 -20 -37 -40 -44 -54 -35 -63 10 -9 23 0 61 41 75 80 69
44 -10 -63 -63 -86 -76 -115 -51 -115 5 0 41 44 82 97 75 100 104 114 49 24
-29 -46 -32 -71 -10 -71 5 0 24 25 42 55 31 52 48 68 48 45 0 -6 -11 -33 -25
-60 -29 -57 -31 -70 -10 -70 8 0 29 28 47 63 37 72 49 57 18 -23 -15 -37 -18
-56 -10 -64 14 -14 22 -2 50 67 38 97 42 49 5 -73 -32 -109 -33 -129 -5 -130
3 0 21 54 40 120 18 66 37 120 42 120 11 0 10 -19 -3 -80 -8 -39 -8 -55 0 -63
16 -16 28 5 36 63 7 48 20 79 30 69 3 -3 1 -35 -4 -70 -9 -69 -8 -79 14 -79
10 0 16 20 21 70 3 39 11 70 15 70 5 0 9 -31 9 -70 0 -63 2 -70 20 -70 18 0
20 7 20 70 0 39 4 70 9 70 10 0 16 -48 25 -176 l5 -71 -112 -6 c-62 -4 -161
-16 -222 -27 -141 -26 -296 -48 -360 -52 -47 -2 -50 -1 -53 23 -5 42 30 64
102 64 33 0 75 -6 93 -14 18 -7 36 -11 41 -10 18 7 -14 118 -44 156 -59 74
-178 107 -250 70 -92 -48 -160 -168 -158 -282 1 -55 9 -83 59 -215 10 -25 21
-91 25 -148 4 -57 9 -104 11 -106 60 -45 104 -46 219 -5 129 47 328 79 490 79
238 0 487 -26 669 -70 146 -36 203 -38 231 -10 11 11 20 23 20 28 7 148 19
202 69 306 80 170 85 249 25 351 -30 51 -115 105 -167 105 -50 0 -109 -31
-155 -82 -35 -39 -78 -125 -68 -136 3 -2 33 1 68 7 37 7 75 8 92 3 36 -10 71
-54 62 -78 -6 -15 -19 -16 -124 -11 -64 4 -162 16 -217 27 -55 11 -148 24
-207 27 l-108 6 0 32 c0 18 -3 73 -6 123 -5 63 -4 92 4 92 6 0 14 -26 17 -57
9 -70 16 -85 34 -74 10 7 11 22 3 72 -5 35 -8 66 -7 68 11 10 24 -16 35 -69
10 -48 17 -60 32 -60 14 0 18 5 14 18 -20 68 -28 114 -19 123 6 6 18 -17 31
-60 17 -52 27 -69 37 -64 19 7 19 9 -5 78 -24 69 -23 65 -7 65 6 0 32 -48 56
-105 45 -108 56 -124 72 -108 6 6 -9 51 -40 121 -51 115 -49 156 3 57 26 -50
43 -65 59 -49 3 3 -10 35 -30 70 -44 81 -23 88 27 9 19 -30 38 -55 42 -55 22
0 16 28 -16 76 -49 74 -35 87 20 20 29 -36 50 -53 59 -50 21 8 20 10 -25 64
-38 46 -49 70 -32 70 5 0 44 -38 86 -85 73 -80 106 -102 106 -72 0 8 -10 22
-21 33 -44 40 -141 155 -136 161 4 3 29 -15 58 -41 46 -42 69 -50 69 -26 0 5
-21 29 -47 54 -26 24 -45 47 -41 51 3 4 31 -11 61 -34 45 -32 57 -38 66 -27 9
10 -1 23 -44 55 -71 54 -62 72 12 25 36 -23 59 -32 65 -26 15 15 4 27 -50 58
-58 34 -55 31 -48 43 5 7 48 -10 116 -44 60 -30 112 -55 115 -55 3 0 5 8 5 18
0 12 -31 33 -105 70 -109 54 -144 87 -52 51 82 -33 90 -35 85 -14 -2 12 -24
27 -58 41 -59 24 -82 50 -33 38 15 -4 45 -13 67 -21 48 -16 46 -17 46 6 0 15
-14 23 -65 36 -36 10 -65 22 -65 28 0 9 24 7 113 -9 31 -5 37 -4 37 10 0 19
-4 21 -84 36 -38 8 -55 15 -48 22 6 6 50 5 127 -4 98 -12 118 -12 122 -1 3 8
4 16 1 18 -2 2 -49 9 -104 15 -123 14 -144 18 -144 30 0 5 30 6 70 3 67 -6 70
-5 70 16 0 19 -5 21 -70 21 -38 0 -70 4 -70 9 0 9 58 21 108 21 24 0 32 4 32
18 0 16 -8 17 -70 14 -78 -5 -98 12 -27 23 79 12 97 17 97 26 0 17 -28 21 -89
11 -45 -6 -61 -6 -61 3 0 7 51 24 120 40 108 25 134 38 115 57 -5 4 -50 -5
-222 -47 -13 -3 -23 -1 -23 4 0 5 29 19 65 31 36 12 65 26 65 31 0 20 -32 20
-90 1 -78 -27 -78 -8 0 25 55 24 70 40 54 56 -3 3 -35 -8 -70 -23 -83 -38 -86
-17 -4 29 50 27 59 35 49 47 -10 12 -20 9 -64 -16 -29 -16 -58 -30 -64 -30
-28 0 -4 23 87 81 53 34 99 63 100 65 2 1 0 9 -5 18 -7 13 -26 4 -113 -54 -58
-39 -107 -65 -108 -60 -2 6 9 21 24 33 71 55 79 65 67 78 -9 9 -23 3 -62 -30
-70 -59 -87 -42 -19 19 41 38 50 51 41 61 -9 9 -23 2 -63 -35 -29 -25 -56 -43
-61 -40 -5 3 11 28 36 56 35 39 43 54 34 64 -9 11 -21 3 -59 -39 -26 -29 -51
-49 -55 -45 -4 4 23 48 60 99 76 105 81 114 62 122 -8 3 -39 -30 -86 -94 -76
-104 -116 -128 -56 -34 39 60 41 70 21 78 -8 3 -25 -16 -47 -54 -32 -55 -49
-72 -49 -49 0 6 12 33 26 61 24 48 26 79 6 79 -5 0 -21 -27 -37 -60 -39 -81
-62 -81 -29 0 28 69 29 76 10 83 -10 4 -21 -12 -36 -54 -21 -56 -36 -77 -46
-67 -2 3 11 56 30 119 18 63 32 117 29 122 -15 26 -33 -5 -63 -108 -18 -63
-37 -115 -43 -115 -5 0 -7 14 -3 33 19 92 19 107 2 107 -15 0 -19 -8 -34 -84
-4 -22 -13 -41 -20 -44 -12 -4 -12 15 3 111 4 21 1 27 -15 27 -16 0 -20 -10
-26 -70 -3 -38 -11 -70 -15 -70 -5 0 -9 34 -9 76 0 66 -2 75 -17 72 -15 -3
-19 -16 -21 -71 -5 -114 -32 -69 -32 53 0 79 -9 120 -27 120 -13 0 -14 -18 -8
-125z m575 -610 c0 -21 -5 -25 -30 -25 l-30 0 0 -155 0 -155 -30 -32 -29 -33
-1 108 0 108 -62 -3 -63 -3 -3 -37 c-2 -21 -7 -38 -13 -38 -15 0 -84 81 -84
99 0 13 18 17 110 21 l110 5 3 58 3 57 -156 0 -155 0 0 -256 c0 -233 -2 -258
-17 -270 -10 -7 -21 -14 -25 -14 -5 0 -8 122 -8 270 l0 270 -45 0 -45 0 0
-276 c0 -152 -3 -274 -7 -272 -5 2 -20 10 -35 17 l-28 14 0 174 0 173 -55 0
c-60 0 -63 -4 -39 -38 22 -32 37 -158 24 -198 -6 -17 -21 -36 -34 -43 -19 -11
-29 -9 -63 9 -22 11 -55 36 -72 55 -37 41 -46 43 -61 14 -16 -29 -5 -65 26
-85 19 -13 22 -19 12 -25 -21 -14 -33 -11 -61 14 -33 28 -36 73 -6 110 17 23
19 32 10 64 -17 61 -13 117 10 147 25 32 39 33 66 4 35 -39 36 -70 5 -130 -16
-29 -27 -59 -24 -66 4 -14 86 -52 112 -52 27 0 42 57 34 122 -4 29 -10 58 -14
63 -5 6 -11 27 -15 48 l-7 37 76 0 76 0 0 60 0 60 -185 0 -185 0 0 25 0 25
505 0 505 0 0 -25z m289 -873 c23 -16 53 -46 66 -68 21 -36 22 -42 10 -71 -13
-31 -66 -73 -92 -73 -7 0 -13 8 -13 18 0 10 -15 34 -32 54 -36 38 -99 56 -153
42 -27 -7 -27 -7 -12 22 29 56 99 103 153 104 18 0 49 -12 73 -28z m-1399 -11
c27 -13 74 -74 82 -106 5 -20 3 -20 -44 -11 -95 20 -188 -27 -188 -95 0 -19
-5 -29 -15 -29 -17 0 -81 54 -95 81 -15 28 21 100 70 139 62 49 118 55 190 21z
m1435 -352 c-50 -109 -57 -130 -65 -220 -5 -55 -12 -105 -15 -110 -8 -12 -71
-12 -115 1 -182 53 -498 90 -764 90 -170 0 -352 -29 -484 -76 -93 -34 -145
-41 -171 -25 -10 6 -17 40 -22 108 -8 103 -14 129 -48 205 -40 87 -51 211 -15
160 32 -46 81 -65 168 -64 91 0 204 14 351 42 55 10 141 24 192 31 120 15 412
7 513 -15 148 -33 244 -43 326 -34 83 9 159 32 184 55 34 32 20 -31 -35 -148z"/>
<path d="M1115 720 c-3 -6 3 -23 15 -40 l21 -29 -63 -3 c-48 -2 -63 -7 -63
-18 0 -8 10 -16 23 -18 20 -3 20 -5 7 -18 -29 -30 -13 -84 26 -84 9 0 19 -9
22 -20 7 -25 27 -26 34 -1 3 12 11 17 23 14 11 -3 24 4 34 18 30 43 16 87 -29
90 -11 1 -2 5 19 8 46 7 58 27 24 40 -13 5 -33 23 -46 40 -24 32 -36 38 -47
21z m-16 -166 c-14 -18 -24 -11 -15 11 3 9 11 13 16 10 8 -5 7 -11 -1 -21z
m66 -3 c-3 -12 -11 -21 -16 -21 -6 0 -8 3 -6 8 2 4 7 16 11 26 9 25 20 13 11
-13z"/>
<path d="M1765 647 c-4 -10 0 -28 9 -42 19 -29 17 -30 -61 -11 -117 28 -113
28 -113 6 0 -12 7 -20 16 -20 13 0 14 -3 4 -15 -31 -37 32 -135 88 -135 17 0
32 -6 36 -15 3 -8 12 -15 19 -15 16 0 27 42 27 96 0 19 4 34 9 34 5 0 6 -30 3
-66 -4 -50 -2 -68 9 -75 25 -16 29 -10 29 49 0 81 5 85 70 57 50 -21 77 -45
51 -45 -6 0 -11 4 -11 8 0 13 -48 32 -64 26 -35 -13 -17 -101 27 -128 22 -14
34 1 19 24 -10 16 -9 18 4 13 9 -3 20 0 25 8 6 9 9 -2 9 -34 0 -41 3 -48 18
-45 14 3 18 16 20 66 2 34 7 62 12 62 6 0 10 8 10 18 0 13 -24 27 -92 54 -74
29 -97 43 -115 70 -49 73 -51 75 -58 55z m-55 -91 c0 -3 -4 -8 -10 -11 -5 -3
-10 -1 -10 4 0 6 5 11 10 11 6 0 10 -2 10 -4z m-7 -73 c15 -19 -8 -16 -28 3
-13 14 -14 18 -3 25 8 5 15 4 17 -4 2 -7 8 -18 14 -24z m221 -64 c-8 -13 -24
-1 -24 18 0 13 3 13 15 3 8 -7 12 -16 9 -21z"/>
<path d="M1270 637 c0 -10 5 -17 10 -17 6 0 10 -17 10 -38 0 -43 14 -62 47
-62 18 0 22 -5 20 -22 -1 -17 3 -23 18 -23 18 0 20 8 23 68 l3 67 42 -6 c52
-8 60 -14 21 -14 -57 0 -73 -52 -29 -95 36 -36 105 -32 105 6 0 20 -24 26 -35
9 -9 -14 -21 -12 -39 6 -25 25 -19 34 24 34 33 0 40 4 40 19 0 10 7 21 15 25
8 3 15 12 15 19 0 16 -47 25 -192 34 -87 5 -98 4 -98 -10z m88 -54 c-4 -39
-28 -42 -28 -4 0 21 5 31 16 31 11 0 14 -8 12 -27z"/>
<path d="M637 633 c-14 -13 -6 -33 13 -33 13 0 20 7 20 20 0 19 -20 27 -33 13z"/>
<path d="M885 633 c-125 -15 -352 -84 -362 -109 -3 -8 2 -21 11 -29 10 -10 14
-25 10 -39 -8 -34 20 -53 57 -39 28 11 29 11 14 -10 -33 -46 -2 -88 46 -63 14
7 30 11 37 8 25 -8 24 29 -2 57 -22 23 -26 36 -26 85 0 67 22 75 30 10 5 -37
7 -39 40 -39 19 0 39 -6 43 -12 15 -24 37 -14 37 16 0 15 3 49 6 75 6 41 9 46
33 46 l25 0 -22 -16 c-27 -19 -29 -64 -4 -87 23 -21 76 -22 96 -1 31 30 8 58
-24 29 -23 -21 -50 -13 -50 14 0 15 8 21 32 23 22 2 36 10 44 27 7 13 18 27
24 31 7 4 9 13 6 19 -7 11 -39 12 -101 4z m32 -39 c-3 -3 -12 -4 -19 -1 -8 3
-5 6 6 6 11 1 17 -2 13 -5z m-127 -35 c0 -17 -3 -19 -14 -10 -7 6 -21 9 -30 5
-9 -3 -16 -3 -16 0 0 6 37 24 53 25 4 1 7 -9 7 -20z m-160 -52 c0 -24 -35 -65
-46 -54 -3 3 4 10 15 17 28 14 28 44 1 37 -22 -6 -28 8 -7 16 26 11 37 6 37
-16z m140 3 c-20 -13 -33 -13 -25 0 3 6 14 10 23 10 15 0 15 -2 2 -10z m-95
-130 c3 -6 -1 -7 -9 -4 -18 7 -21 14 -7 14 6 0 13 -4 16 -10z"/>
</g>
</svg>
